<svg xmlns="http://www.w3.org/2000/svg" viewBox="0 0 150 144">
<!-- SVG created with Arrow, by QuiverAI (https://quiver.ai) -->
  <style type="text/css">.cls-0 {fill:#647E94;}
.cls-1 {fill:#91A38E;}
.cls-2 {fill:#A2717B;}
.cls-3 {fill:#A89D93;}
.cls-4 {fill:#A89C92;}
.cls-5 {fill:#9B7079;}
.cls-6 {fill:#5C788F;}</style>
  <path class="cls-0" d="m62.5 106c-16.4-5.3-32.5-20.2-33.7-43.5-0.5-10.4 3.2-21.9 11.3-31.6 6.3-7.4 16.7-14.5 29.2-15.9 7.1-0.9 13.5-0.5 20.6 1.7 1.5 0.5 2.5 1.2 3.1-0.2l1.6-3.2c0.3-0.7 0-1.5-0.7-1.7-1.9-0.7-3.9-1.2-6.1-1.8-0.7-0.2-1.2-0.9-1.2-1.6l-0.3-5.4c-0.2-0.6-0.7-1.2-1.3-1.3-2.7-0.5-5.8-0.9-9.8-1-4.1 0.1-7.1 0.4-11.1 1.2-0.6 0.2-1.3 0.8-1.3 1.5l-0.6 5.1c0 0.7-0.5 1.2-1.2 1.5-3.9 1-8 2.6-12.3 4.9-0.4 0.3-1 0.3-1.4-0.1-1.4-1-3.2-2.6-4.3-3.6-0.6-0.5-1.4-0.6-2.2-0.1-2 1.5-5.3 4-7.7 6.4-2.2 2.2-4.3 4.8-5.2 6-0.4 0.5-0.4 1.5-0.2 1.8l3.4 4.9c0.4 0.6 0.4 1.2 0 1.7-3.3 5-5.7 10.6-7.4 16.4-0.1 0.6-0.6 1-1.2 1.1l-4.6 0.6c-0.5 0.1-1.2 0.6-1.3 1.4-0.4 3.2-0.9 5.9-0.7 10.4 0.1 2 0.4 5 0.7 7.4 0.1 0.8 0.6 1.4 1.3 1.5l4.4 0.8c0.6 0.1 1.1 0.6 1.3 1.2 1.1 4.6 3.1 10.4 6.7 16.2 0.4 0.6 0.3 1.3-0.1 1.8l-2.4 3.2c-0.3 0.5-0.3 1.3 0.1 1.8 3.2 4.3 7.6 8.9 12.7 13 0.8 0.6 1.9 0.8 2.3 0.3 1-0.8 3-2.4 3.5-2.7 0.3-0.2 0.6-0.4 1.2-0.1 4.1 2.6 8.3 4.5 12.7 6.1 1.1 0.3 1.9 0.6 2.2-0.7l0.9-3.4c0.4-0.8 0-1.8-0.9-2z"/>
  <path class="cls-1" d="m97.9 19 3.8-7c0.4-0.7 1.3-1.1 2.2-0.5 6.5 3.7 17.9 12 24.2 27.4l0.9 2.3c0.2 0.9 0.2 1-0.6 1.6-1.9 1.5-3.8 1.7-3.6 3.3l1.2 6.5c0.1 1-0.4 1.7-1.1 1.7l-3.2 0.5c-0.9 0-1.3-0.5-1.5-1.5-1.7-10.9-7.2-23.3-20.2-31.6l-1.9-1.1c-0.7-0.3-0.7-0.9-0.2-1.6z"/>
  <path class="cls-2" d="m90.5 105.6c15.4-5.7 29.9-19.5 30.3-45.3-0.1-0.8 0.4-1.5 1.1-1.5l3.7-0.4c0.6 0 1.3 0.4 1.3 1.3 0.3 5.7 0 10.4-1.4 15.8-0.2 0.9 0.5 1.5 1 1.7l3.6 1.7c1.1 0.6 1.2 1.3 0.7 2.6-1.4 3.9-4.1 9.3-7.3 13.4-0.4 0.4-1 0.7-1.6 0.5l-4.7-1.1c-0.6-0.1-1.3 0-1.7 0.6-4.9 5.9-12.5 12.2-23 16.7-0.9 0.5-1.9 0.8-2.3-0.8l-0.8-2.9c-0.3-1 0.1-1.9 1.1-2.3z"/>
  <path class="cls-3" d="m95.6 26.8c0.3-0.3 0.8-0.4 1.1-0.2 10 6.4 18.2 17.5 18.7 32.5 0 11.2-4.3 27-20.5 36.3-0.7 0.6-1.9-1.4-1.3-1.8 10.9-5.8 19.5-17.6 19.6-33.2-0.1-11.3-5.1-23.4-16.2-31l-1.5-1c-0.8-0.5-0.1-1.4 0.1-1.6z"/>
  <path class="cls-3" d="m56.4 93.3c1.3 0.5 0 2.5-0.9 2.1-8.4-4.6-20.4-15.7-20.5-35 0-13.7 7.5-25.5 18-32.8 5.6-3.8 12.7-7.2 21.9-7.4h3.3c2.7 0.3 5.9 0.7 9.3 1.7 1.2 0.4 0.6 2.5-0.6 2.1-3.5-0.9-7.2-1.6-11.5-1.6-6 0-11.6 1.2-17.8 4.3-10.2 5-20.4 17.2-20.5 33.2 0 11.7 6 26.3 19.3 33.4z"/>
  <path class="cls-4" d="m91.9 23c1 0 1.8 0.8 1.8 1.9 0 1-0.8 1.9-1.9 1.8-1 0-1.8-0.8-1.8-1.8s0.8-1.9 1.9-1.9z"/>
  <path class="cls-4" d="m64.2 113.2 1.3-5.1c0.2-0.7 0.7-1.1 1.5-1 2.6 0.4 5.6 0.7 8.1 0.8 3.1 0 6.1-0.3 9.1-0.9 1.2-0.2 1.6 0.2 1.9 1.4l1.1 4.2c0.2 1-0.2 1.8-1.3 1.9-6.2 1.6-12.5 2-20.4 0.2-0.8-0.2-1.4-0.9-1.3-1.5z"/>
  <path class="cls-1" d="m70.6 53.8 3-2.6c-4.3-3.1-10-7.6-10-14.8v-4.4h-3.7v4.2c0 7.9 5.6 13.4 10.7 17.6z"/>
  <path class="cls-0" d="m70.3 86.5 3.3-1.9c-4-2.6-9.5-6.1-9.6-12.7 0.1-8.2 9.9-12.5 17.9-20 3.7-3.2 7.5-8 7.5-15v-5h-3.6v4.5c-0.2 7.7-6.8 11.1-9.6 13.6-6.8 5.7-15.8 10.6-15.9 19.9 0 7.2 4.3 13 10 16.6z"/>
  <path class="cls-1" d="m76 58.2 2.9-2.3c3.7 2.9 10 7.6 10.5 14.6 0.7 6.4-2.8 12.4-9.4 16.4-6.1 3.9-13.3 5.2-16.6 13l-3-0.8c3.2-8.2 10.1-10.5 16.1-14.1 4.9-3 9.1-7.1 9-13.1-0.6-7.7-6.3-10.3-9.5-13.7z"/>
  <path class="cls-4" d="m67 37.8 15-0.1c0.4 0 0.9 0.5 0.6 0.9l-0.4 0.8c-0.1 0.2-0.3 0.3-0.6 0.3h-14c-0.4 0-1.2-1.3-1.1-1.6l0.2-0.3h0.3z"/>
  <path class="cls-2" d="m70 43.9h8.9c0.3 0 0.7 0.2 0.3 0.5l-1.3 1.4-6.4 0.1-1.6-1.5c-0.4-0.3-0.2-0.5 0.1-0.5z"/>
  <path class="cls-4" d="m67.8 97.1 1.2-1.2c0.1-0.1 0.2-0.2 0.5-0.2h10.1c0.1 0 0.3 0 0.4 0.2l1.1 1.2c0.4 0.4 0.1 0.6-0.2 0.6h-12.8c-0.4 0-0.7-0.2-0.3-0.6z"/>
  <path class="cls-4" d="m69.5 65.4 1.2-1.2c0.1-0.1 0.3-0.2 0.4-0.2h7.3c0.1 0 0.2 0 0.3 0.1l1.2 1.1c0.5 0.5 0.2 0.8-0.2 0.8h-10.1c-0.4 0-0.5-0.3-0.1-0.6z"/>
  <path class="cls-4" d="m69.1 77.2h11.3c0.3 0 0.5 0.2 0.1 0.7l-1 1.1c-0.1 0.1-0.3 0.1-0.4 0.1h-8.5c-0.5 0-1.7-1.5-1.7-1.5-0.2-0.2 0-0.4 0.2-0.4z"/>
  <path class="cls-2" d="m67.2 70.5h14.8c1 0 0.9 2.1 0 2.1h-14.8c-1 0-0.8-2.1 0-2.1z"/>
  <path class="cls-6" d="m77.1 90.1 3.3-1.7c3.5 2.7 6.6 6 8.7 10.7l-3.2 1.1c-2-3.8-4.5-6.8-8.8-10.1z"/>
  <path class="cls-0" d="m1.9 130.9c0.7-0.9 2-1.8 4-1.8 2.7 0 4.1 1.3 4.1 3.8v6.2h-1.9l-0.2-1.4c-0.5 0.9-1.5 1.7-3.2 1.6-2.1 0.1-2.9-1.1-2.8-2.9 0-1.5 1.3-2.9 4.1-2.9h1.9v-0.5c0-1.3-0.7-2-2-2-1.4 0-2 0.5-2.5 1.2l-1.2-1.3zm3.6 6.8c1.4 0 2.6-0.8 2.5-2.1v-0.9h-2.1c-1.3 0-2 0.5-2 1.5 0 0.9 0.6 1.5 1.6 1.5z"/>
  <path class="cls-0" d="m21.9 139.1h-2l-0.2-1.5c-0.5 0.9-1.5 1.7-3.3 1.7-2 0.1-3.5-1.2-3.4-4.3v-5.6h2v5.3c0 1.9 0.6 2.7 2 2.7 1.6 0 2.6-0.9 2.6-2.8v-5.2h2.3v9.7z"/>
  <path class="cls-0" d="m31.3 138.7c-0.4 0.4-1.3 0.6-2.2 0.6-2 0-3.1-0.9-3.1-2.9v-5.2h-1.8v-1.8h1.8v-2.9h2.1v2.7h2.9v2h-2.8v4.7c0 1 0.7 1.7 1.4 1.6 0.5 0 1-0.1 1.3-0.3l0.4 1.5z"/>
  <path class="cls-0" d="m38 129.1c3.1 0 5.1 2.1 5.1 5.1-0.1 3.2-2.1 5.1-5.1 5.1-2.9 0.1-5.1-2.1-5.1-5.2-0.1-2.7 2-5.1 4.6-5h0.5zm-0.1 8.3c1.7 0 3-1.3 3-3 0-2-1.2-3.3-2.9-3.3-1.8-0.1-2.9 1.3-2.8 3.1 0 1.9 1.2 3.3 2.7 3.2z"/>
  <path class="cls-2" d="m46.1 125h5.6c2.8 0 4.4 1.4 4.4 3.9 0 1.3-0.7 2.5-2 3.2 1.5 0.4 2.5 1.5 2.5 3.4 0 2.4-2 3.6-4 3.6h-6.5v-14.1zm2.4 2.1v4.1h2.7c1.7 0 2.5-0.7 2.5-2s-0.8-2.1-2.1-2.1h-3.1zm0 6.1v3.9h3.4c1.3 0 2.5-0.6 2.5-1.9s-0.8-2-2.2-2h-3.7z"/>
  <path class="cls-2" d="m60.3 135.4c0.8 1.2 1.9 2 3.7 2 1.4 0 2.5-0.7 2.5-1.8 0-1.2-0.8-1.7-2.6-2.2l-1-0.3c-2.3-0.6-3.8-1.7-3.8-4.1s1.9-4.1 4.6-4.1c2.3 0 3.7 0.7 4.8 2.1l-1.6 1.6c-0.7-1-1.8-1.6-3-1.6-1.5 0-2.4 0.7-2.4 1.7 0 1.2 0.9 1.7 2.2 2l1.2 0.4c2.1 0.6 4 1.6 4 4.3 0 2.5-2.2 3.9-5 3.9-2.4 0-4-0.7-5.2-2.4l1.6-1.5z"/>
  <path class="cls-5" d="m73.4 140c0.7 0.7 1.7 1.6 3.2 1.6 1.6 0 2.5-1.1 2.5-2.5v-1.5c-0.6 0.9-1.9 1.4-3.1 1.4-2.3 0.1-4.4-1.8-4.4-4.9 0-2.6 1.6-4.9 4.4-4.9 1.4 0 2.4 0.4 3.1 1.4l0.1-1.2h2v9.1c0 3.5-1.8 5-4.8 5-2 0-3.2-0.5-4.3-1.8l1.3-1.7zm3.2-2.8c1.4 0 2.6-1.2 2.5-2.6v-0.7c0-1.5-1-2.8-2.5-2.8-1.6 0-2.7 1.3-2.7 3 0 1.8 1.1 3.1 2.7 3.1z"/>
  <path class="cls-5" d="m86.6 134.7c0 1.5 1.3 2.7 2.8 2.7 1.1 0 2-0.5 2.8-1.2l1.3 1.4c-0.9 1-2 1.7-4 1.7-3.1 0-5.3-1.9-5.3-5.1 0-2.8 1.7-5.1 5-5.1 2.7 0 4.5 2.3 4.5 4.8v0.8h-7.1zm2.5-3.7c-1.5 0-2.5 1.1-2.5 2.4h5c0-1.4-1-2.4-2.5-2.4z"/>
  <path class="cls-5" d="m96.7 129.4h2l0.2 1.5c0.5-1 1.7-1.8 3.3-1.8 2.3 0 3.5 1.5 3.5 3.8v6.2h-2.1v-5.4c0-1.8-0.7-2.6-2-2.6-1.5 0-2.7 1-2.7 2.8v5.2h-2.2v-9.7z"/>
  <path class="cls-5" d="m113.9 129.1c3-0.1 4.8 2.3 4.8 4.9 0 3.4-2 5.3-4.8 5.3-2.9 0.1-5.4-2.1-5.4-5.1 0-3.1 2-5.1 5.2-5.1h0.2zm-0.2 8.3c1.8 0 2.9-1.4 2.9-3.2 0-1.6-1-3.1-2.7-3.1-1.7-0.1-3 1.3-3 3 0 2 1.2 3.3 2.8 3.3z"/>
  <path class="cls-5" d="m121.5 129.4h2.1l0.1 1.3c0.7-1.1 1.8-1.6 3.4-1.6 1.3 0 2.3 0.8 2.8 1.8 1-1.4 1.8-1.8 3.7-1.8 2.1 0 3.5 1.5 3.5 4v6h-2.1v-5.6c0-1.6-0.6-2.4-1.9-2.4-1.5 0-2.4 1-2.4 2.5v5.5h-2.3v-5.6c0-1.4-0.8-2.4-1.9-2.4-1.4 0-2.6 0.9-2.8 2.8v5.2h-2.2v-9.7z"/>
  <path class="cls-5" d="m141.6 134.7c0 1.5 1.1 2.7 2.8 2.7 1 0 2-0.5 2.7-1.2l1.1 1.4c-0.8 1-2.1 1.7-4 1.7-2.8 0.1-4.7-1.9-4.7-5.1 0-2.8 1.6-5.1 4.7-5.1 2.9 0 4.5 2 4.5 4.8v0.8h-7.1zm2.5-3.8c-1.5 0-2.5 1.2-2.5 2.5h4.9c-0.1-1.4-0.9-2.5-2.4-2.5z"/>
</svg>